<svg xmlns="http://www.w3.org/2000/svg" width="14.854" height="9.25" viewBox="0 0 14.854 9.25"><defs><style>.a{fill:#091e4a;}</style></defs><g transform="translate(-298.563 -90.297)"><g transform="translate(298.563 90.297)"><path class="a" d="M303.188,99.547a1.064,1.064,0,0,1-.755-.313l-3.558-3.558a1.067,1.067,0,0,1,0-1.509l3.558-3.558a1.067,1.067,0,0,1,1.509,1.509l-2.8,2.8,2.8,2.8a1.067,1.067,0,0,1-.755,1.822Z" transform="translate(-298.563 -90.297)"/><path class="a" d="M13.036,1.385H.317a1.067,1.067,0,0,1,0-2.135H13.036a1.067,1.067,0,1,1,0,2.135Z" transform="translate(0.75 4.308)"/></g></g></svg>