<svg xmlns="http://www.w3.org/2000/svg" width="27.44" height="24" viewBox="0 0 27.44 24"><defs><style>.a{fill:#20304f;}</style></defs><g transform="translate(3 -28.05)"><path class="a" d="M247.194,267.563a2,2,0,0,1-1.994-1.994v-2.825a2,2,0,0,1,1.994-1.994h3.683a2,2,0,0,1,1.994,1.994v2.825a2,2,0,0,1-1.994,1.994Zm0-5.151a.333.333,0,0,0-.332.332v2.825a.333.333,0,0,0,.332.332h3.683a.333.333,0,0,0,.332-.332v-2.825a.333.333,0,0,0-.332-.332Z" transform="translate(-234.452 -219.811)"/><path class="a" d="M.157,52.05a.832.832,0,0,1-.831-.831V39.633A4.059,4.059,0,0,1-3,35.971a.833.833,0,0,1,.11-.407l4.027-7.091a.823.823,0,0,1,.721-.422H19.577a.831.831,0,0,1,.721.422l4.032,7.09a.775.775,0,0,1,.11.409,4.067,4.067,0,0,1-2.332,3.671V51.219a.832.832,0,0,1-.831.831ZM3.01,50.394V43.382a2.445,2.445,0,0,1,2.443-2.443H7.385a2.445,2.445,0,0,1,2.443,2.443v7.007H20.446V40.024h-.061a4.047,4.047,0,0,1-3.224-1.6,4.039,4.039,0,0,1-6.437,0,4.049,4.049,0,0,1-6.447,0,4.048,4.048,0,0,1-3.224,1.6H.988V50.394Zm5.162-.006V43.382a.782.782,0,0,0-.781-.781H5.458a.782.782,0,0,0-.781.781v7.007Zm9.9-13.8a2.392,2.392,0,0,0,4.621,0Zm-19.331-.006a2.373,2.373,0,0,0,2.3,1.772h.011a2.386,2.386,0,0,0,2.315-1.772Zm12.889,0a2.389,2.389,0,0,0,4.617,0Zm-6.446,0a2.392,2.392,0,0,0,4.621,0Zm16.866-1.656-2.963-5.212H2.342L-.615,34.929Z"/></g></svg>