<svg xmlns="http://www.w3.org/2000/svg" width="100.577" height="128" viewBox="0 0 100.577 128"><defs><style>.a{fill:#ffdcd5;}.a,.b{fill-rule:evenodd;}.b{fill:#f5c6af;}.c{fill:#20304f;}</style></defs><g transform="translate(-54.846 0.001)"><g transform="translate(57.344 11.722)"><path class="a" d="M290.419,188.864c-1.039,3.878-14.744,8.816-20.97,16.7L256,255.76l39.855-10.679-6.372-23.78,12.572-20.462a7.689,7.689,0,0,0,1.426-7.01L299.106,177.5a5.173,5.173,0,0,0-6.317-3.647,5.3,5.3,0,0,0-3.647,6.317,83.843,83.843,0,0,1,1.277,8.693Z" transform="translate(-208.21 -141.982)"/><path class="b" d="M126.079,110.475l7.909-29.516,1.953-7.29A5.158,5.158,0,1,0,125.978,71l2.67-9.964a5.158,5.158,0,0,0-9.964-2.67l1.335-4.982a5.158,5.158,0,1,0-9.964-2.67L108.72,55.7a5.158,5.158,0,1,0-9.964-2.67l-12.646,47.2c-4.052-2.523-7.406-4.605-7.9-6.448a84.015,84.015,0,0,1,1.278-8.694,5.3,5.3,0,0,0-3.647-6.317,5.173,5.173,0,0,0-6.317,3.647L65.15,98.737a7.69,7.69,0,0,0,1.425,7.009l12.572,20.462-6.372,23.78,39.854,10.679Z" transform="translate(-64.84 -46.891)"/><path class="a" d="M322.868,202.425l-5.161-19.263L309.8,212.678c3.267-4.139,8.6-7.465,13.071-10.253Z" transform="translate(-248.558 -149.094)"/></g><g transform="translate(54.846 -0.001)"><path class="c" d="M155.03,90.583l-4.375-16.328a7.673,7.673,0,0,0-9.378-5.415,7.759,7.759,0,0,0-5.451,9.22c.445,2.229.968,5.48,1.183,7.767a18.17,18.17,0,0,1-3.818,2.958L129.081,73.45l1.78-6.643a7.658,7.658,0,0,0-8.1-9.607l.811-3.027A7.658,7.658,0,0,0,115.2,44.6a7.663,7.663,0,0,0-14.319-3.837A7.658,7.658,0,0,0,88.846,44.87L77.079,88.785a18.154,18.154,0,0,1-3.818-2.958c.215-2.287.739-5.538,1.183-7.766a7.76,7.76,0,0,0-5.452-9.221,7.673,7.673,0,0,0-9.379,5.415L55.239,90.582a10.17,10.17,0,0,0,1.753,9.035l11.966,19.476-6.093,22.741a2.5,2.5,0,0,0,1.768,3.062l39.855,10.679a2.5,2.5,0,0,0,1.294,0L145.636,144.9a2.5,2.5,0,0,0,1.768-3.062l-6.093-22.741,11.966-19.476a10.168,10.168,0,0,0,1.753-9.035Zm-26.269.992c-1.8,1.131-3.7,2.365-5.532,3.716l3.264-12.181ZM103.367,150.1l-35.025-9.385,5.725-21.365a2.5,2.5,0,0,0-.285-1.956L61.209,96.93q-.045-.073-.094-.142a5.211,5.211,0,0,1-1.046-4.911l4.375-16.328A2.673,2.673,0,0,1,67.7,73.669a2.835,2.835,0,0,1,1.842,3.413,86.553,86.553,0,0,0-1.319,9,2.5,2.5,0,0,0,.078.831c.747,2.788,4.183,4.928,8.939,7.89l.053.033a2.5,2.5,0,0,0,3.736-1.475l12.646-47.2a2.658,2.658,0,0,1,5.134,1.376l-8.388,31.3a2.5,2.5,0,1,0,4.83,1.294l8.388-31.3,1.335-4.982a2.658,2.658,0,0,1,5.134,1.376l-1.335,4.982L103.3,70.645a2.5,2.5,0,1,0,4.83,1.294L113.6,51.5l0-.007a2.658,2.658,0,0,1,5.132,1.383l-2.67,9.964-5.718,21.34a2.5,2.5,0,1,0,4.83,1.294l5.718-21.34,0-.006a2.658,2.658,0,0,1,5.132,1.382l-9.851,36.766c-.007.026-.015.052-.021.078Zm45.787-53.31c-.033.047-.064.094-.094.142l-12.572,20.462a2.5,2.5,0,0,0-.285,1.956l5.725,21.365-33.258,8.912,12.191-45.5c3.038-3.639,7.88-6.655,12.169-9.326,4.756-2.962,8.192-5.1,8.939-7.89a2.5,2.5,0,0,0,.078-.831,86.482,86.482,0,0,0-1.319-9,2.835,2.835,0,0,1,1.842-3.412,2.673,2.673,0,0,1,3.255,1.879L150.2,91.877a5.211,5.211,0,0,1-1.046,4.911Z" transform="translate(-54.846 -27.66)"/><path class="c" d="M116.8,9.424a2.5,2.5,0,0,0,3.535-3.535L115.175.732a2.5,2.5,0,0,0-3.535,3.535Z" transform="translate(-96.892 0)"/><path class="c" d="M75.344,98.563h7.781a2.5,2.5,0,1,0,0-5H75.344a2.5,2.5,0,0,0,0,5Z" transform="translate(-68.344 -70.172)"/><path class="c" d="M362.968,10.155a2.492,2.492,0,0,0,1.768-.732l5.156-5.156A2.5,2.5,0,0,0,366.357.731L361.2,5.887a2.5,2.5,0,0,0,1.768,4.268Z" transform="translate(-284.063 0.001)"/><path class="c" d="M388.031,96.063a2.5,2.5,0,0,0,2.5,2.5h7.781a2.5,2.5,0,0,0,0-5h-7.781A2.5,2.5,0,0,0,388.031,96.063Z" transform="translate(-304.735 -70.172)"/><path class="c" d="M239.169,208.006h0a2.5,2.5,0,1,0,2.5,2.5A2.5,2.5,0,0,0,239.167,208.006Z" transform="translate(-191.212 -156.004)"/></g></g></svg>