<svg xmlns="http://www.w3.org/2000/svg" width="16.333" height="14" viewBox="0 0 16.333 14"><defs><style>.a{fill:#c7cede;}</style></defs><path class="a" d="M46,64H34.333A2.336,2.336,0,0,0,32,66.333v9.333A2.336,2.336,0,0,0,34.333,78H46a2.336,2.336,0,0,0,2.333-2.333V66.333A2.336,2.336,0,0,0,46,64Zm-2.917,2.333a1.75,1.75,0,1,1-1.75,1.75,1.75,1.75,0,0,1,1.75-1.75Zm-8.75,10.5a1.167,1.167,0,0,1-1.167-1.167V73.2l3.458-3.073a1.752,1.752,0,0,1,2.4.069l2.368,2.363-4.274,4.274Zm12.833-1.167A1.167,1.167,0,0,1,46,76.833H38.768l4.427-4.427a1.74,1.74,0,0,1,2.247-.006l1.725,1.437Z" transform="translate(-32 -64)"/></svg>