<svg xmlns="http://www.w3.org/2000/svg" width="16" height="16" viewBox="0 0 16 16"><defs><style>.a{fill:#5e6167;fill-rule:evenodd;}</style></defs><path class="a" d="M45.669,34.324A7.952,7.952,0,0,0,33.13,43.892L32,48l4.223-1.1a7.987,7.987,0,0,0,3.807.964h0A7.959,7.959,0,0,0,48,39.932,7.864,7.864,0,0,0,45.669,34.324Zm-5.635,12.2h0a6.634,6.634,0,0,1-3.37-.919l-.242-.143-2.506.654.669-2.432-.158-.25a6.627,6.627,0,1,1,5.609,3.089Zm3.632-4.935c-.2-.1-1.179-.579-1.36-.645s-.315-.1-.448.1-.514.643-.63.777-.232.149-.431.049a5.445,5.445,0,0,1-1.6-.983,5.974,5.974,0,0,1-1.107-1.372c-.116-.2-.013-.306.087-.4s.2-.231.3-.347a1.34,1.34,0,0,0,.2-.331.364.364,0,0,0-.016-.347c-.05-.1-.448-1.074-.614-1.471s-.326-.334-.448-.34-.25-.007-.382-.007a.733.733,0,0,0-.531.248,2.22,2.22,0,0,0-.7,1.653,3.855,3.855,0,0,0,.813,2.049,8.85,8.85,0,0,0,3.4,2.991,11.54,11.54,0,0,0,1.135.417,2.74,2.74,0,0,0,1.254.079,2.049,2.049,0,0,0,1.344-.942,1.654,1.654,0,0,0,.116-.942C44,41.736,43.865,41.686,43.665,41.587Z" transform="translate(-32 -31.999)"/></svg>