<svg xmlns="http://www.w3.org/2000/svg" width="32" height="32" viewBox="0 0 32 32"><defs><style>.a{fill:#20304f;}</style></defs><g transform="translate(-48 -48)"><path class="a" d="M64,80A16,16,0,1,1,80,64,16.018,16.018,0,0,1,64,80Zm0-29.538A13.538,13.538,0,1,0,77.538,64,13.558,13.558,0,0,0,64,50.462Z"/><path class="a" d="M259.472,155.385a5,5,0,0,1-3.642-1.672,6.443,6.443,0,0,1-1.692-3.948,5.382,5.382,0,0,1,1.375-4.125,5.571,5.571,0,0,1,7.907.01,5.4,5.4,0,0,1,1.385,4.116h0a6.462,6.462,0,0,1-1.692,3.946A5,5,0,0,1,259.472,155.385Zm4.293-5.692Z" transform="translate(-190.266 -88.615)"/><path class="a" d="M109.818,180.52c-2.289,0-4.3-2.116-4.487-4.718a4.525,4.525,0,0,1,1.167-3.468,4.651,4.651,0,0,1,6.632.011,4.538,4.538,0,0,1,1.173,3.462C114.115,178.4,112.1,180.52,109.818,180.52Z" transform="translate(-52.909 -113.492)"/><path class="a" d="M204.472,321.708a2.19,2.19,0,0,0-1.017-1.112,13,13,0,0,0-12.847.026,8.525,8.525,0,0,0-3.923,5.245,4.132,4.132,0,0,0-.116,2.008,14.783,14.783,0,0,0,17.9-6.167Z" transform="translate(-127.828 -250.071)"/><path class="a" d="M87.264,317.924a9.985,9.985,0,0,1,3.5-5.442.615.615,0,0,0-.2-1.059,10.642,10.642,0,0,0-3.284-.452,10.332,10.332,0,0,0-5.242,1.4,4.113,4.113,0,0,1-1.137.442,14.834,14.834,0,0,0,5.983,6.665l.138-.011a7.909,7.909,0,0,1,.243-1.54Z" transform="translate(-30.369 -242.742)"/></g></svg>