<svg xmlns="http://www.w3.org/2000/svg" width="15.997" height="16" viewBox="0 0 15.997 16"><defs><style>.a{fill:#5e6167;}</style></defs><path class="a" d="M44.916,48.009a6.73,6.73,0,0,1-3.143-1.071,20.434,20.434,0,0,1-4.936-3.692,18.732,18.732,0,0,1-3.707-4.935c-1.316-2.393-1.091-3.647-.841-4.183a3.339,3.339,0,0,1,1.309-1.4,6.3,6.3,0,0,1,1.023-.543l.1-.043a.956.956,0,0,1,.784-.071,2.3,2.3,0,0,1,.745.571A12.382,12.382,0,0,1,38.112,35.4a2.755,2.755,0,0,1,.365,1.133,1.79,1.79,0,0,1-.455,1.065c-.047.064-.093.125-.138.184-.272.357-.331.46-.292.645a6.775,6.775,0,0,0,1.65,2.447,6.494,6.494,0,0,0,2.419,1.61c.192.041.3-.021.666-.3.053-.04.107-.082.164-.124a1.8,1.8,0,0,1,1.081-.484h0a2.588,2.588,0,0,1,1.138.4,13.643,13.643,0,0,1,2.755,1.849,2.3,2.3,0,0,1,.573.743.963.963,0,0,1-.071.786c-.013.03-.028.062-.043.1a6.3,6.3,0,0,1-.546,1.021,3.34,3.34,0,0,1-1.406,1.306A2.408,2.408,0,0,1,44.916,48.009Z" transform="translate(-32.098 -32.009)"/></svg>