<svg xmlns="http://www.w3.org/2000/svg" width="12.571" height="16" viewBox="0 0 12.571 16"><defs><style>.a{fill:#20304f;}</style></defs><g transform="translate(-80 -32)"><path class="a" d="M90.571,186.857H82a2,2,0,0,1-2-2V178a2,2,0,0,1,2-2h1.429a.571.571,0,1,1,0,1.143H82a.858.858,0,0,0-.857.857v6.857a.858.858,0,0,0,.857.857h8.571a.857.857,0,0,0,.857-.857V178a.858.858,0,0,0-.857-.857H89.143a.571.571,0,1,1,0-1.143h1.429a2,2,0,0,1,2,2v6.857a2,2,0,0,1-2,2Z" transform="translate(0 -138.857)"/><path class="a" d="M166.286,36a.57.57,0,0,1-.4-.167l-2.453-2.453-2.453,2.453a.571.571,0,1,1-.808-.808l2.857-2.857a.571.571,0,0,1,.808,0l2.857,2.857a.571.571,0,0,1-.4.975Z" transform="translate(-77.143)"/><path class="a" d="M-15.429-5.107A.571.571,0,0,1-16-5.679v-9.75A.571.571,0,0,1-15.429-16a.571.571,0,0,1,.571.571v9.75A.571.571,0,0,1-15.429-5.107Z" transform="translate(101.714 48)"/></g></svg>