<svg xmlns="http://www.w3.org/2000/svg" width="17.143" height="20" viewBox="0 0 17.143 20"><defs><style>.a{fill:none;}.b{fill:#c7cede;}</style></defs><g transform="translate(-64 -32)"><path class="a" d="M211.928,64h-3.571a.353.353,0,0,0-.357.357v1.071h4.286V64.357a.353.353,0,0,0-.357-.357Z" transform="translate(-137.571 -30.571)"/><path class="b" d="M80.429,34.857H76.143V33.786A1.786,1.786,0,0,0,74.357,32H70.786A1.786,1.786,0,0,0,69,33.786v1.071H64.714a.714.714,0,1,0,0,1.429h.759L66.321,49.9A2.153,2.153,0,0,0,68.464,52h8.214a2.143,2.143,0,0,0,2.143-2.1l.848-13.616h.759a.714.714,0,1,0,0-1.429ZM69.74,49.143h-.025A.714.714,0,0,1,69,48.454l-.357-10a.715.715,0,0,1,1.429-.051l.357,10a.714.714,0,0,1-.689.74Zm3.546-.714a.714.714,0,0,1-1.429,0v-10a.714.714,0,0,1,1.429,0Zm1.429-13.571H70.429V33.786a.353.353,0,0,1,.357-.357h3.571a.353.353,0,0,1,.357.357Zm1.429,13.6a.714.714,0,0,1-.714.689H75.4a.714.714,0,0,1-.688-.74l.357-10a.715.715,0,1,1,1.429.051Z"/></g></svg>